<mxfile host="app.diagrams.net" agent="Mozilla/5.0 (Windows NT 10.0; Win64; x64) AppleWebKit/537.36 (KHTML, like Gecko) Chrome/131.0.0.0 Safari/537.36 Edg/131.0.0.0" version="25.0.3">
  <diagram name="Page-1" id="v0WMFnOLdisUTXzfRpB_">
    <mxGraphModel dx="1737" dy="942" grid="1" gridSize="10" guides="1" tooltips="1" connect="1" arrows="1" fold="1" page="1" pageScale="1" pageWidth="827" pageHeight="1169" math="0" shadow="0">
      <root>
        <mxCell id="0" />
        <mxCell id="1" parent="0" />
        <mxCell id="yL99DGl1aEYfDPcf7KlV-7" style="edgeStyle=orthogonalEdgeStyle;rounded=0;orthogonalLoop=1;jettySize=auto;html=1;entryX=0.5;entryY=0;entryDx=0;entryDy=0;" edge="1" parent="1" source="yL99DGl1aEYfDPcf7KlV-1" target="yL99DGl1aEYfDPcf7KlV-6">
          <mxGeometry relative="1" as="geometry" />
        </mxCell>
        <mxCell id="yL99DGl1aEYfDPcf7KlV-8" value="sends purchase data" style="edgeLabel;html=1;align=center;verticalAlign=middle;resizable=0;points=[];" vertex="1" connectable="0" parent="yL99DGl1aEYfDPcf7KlV-7">
          <mxGeometry x="-0.0809" y="1" relative="1" as="geometry">
            <mxPoint as="offset" />
          </mxGeometry>
        </mxCell>
        <mxCell id="yL99DGl1aEYfDPcf7KlV-1" value="Receive&amp;nbsp;&lt;div&gt;Purchase Request&lt;/div&gt;" style="ellipse;whiteSpace=wrap;html=1;fillColor=#fff2cc;strokeColor=#d6b656;" vertex="1" parent="1">
          <mxGeometry x="400" y="260" width="120" height="80" as="geometry" />
        </mxCell>
        <mxCell id="yL99DGl1aEYfDPcf7KlV-2" value="Admin" style="rounded=0;whiteSpace=wrap;html=1;fillColor=#e1d5e7;strokeColor=#9673a6;" vertex="1" parent="1">
          <mxGeometry x="210" y="280" width="110" height="40" as="geometry" />
        </mxCell>
        <mxCell id="yL99DGl1aEYfDPcf7KlV-3" style="edgeStyle=orthogonalEdgeStyle;rounded=0;orthogonalLoop=1;jettySize=auto;html=1;entryX=0.5;entryY=0;entryDx=0;entryDy=0;" edge="1" parent="1" source="yL99DGl1aEYfDPcf7KlV-2" target="yL99DGl1aEYfDPcf7KlV-1">
          <mxGeometry relative="1" as="geometry">
            <Array as="points">
              <mxPoint x="265" y="240" />
              <mxPoint x="460" y="240" />
            </Array>
          </mxGeometry>
        </mxCell>
        <mxCell id="yL99DGl1aEYfDPcf7KlV-5" value="receive&amp;nbsp; purchase detail" style="edgeLabel;html=1;align=center;verticalAlign=middle;resizable=0;points=[];" vertex="1" connectable="0" parent="yL99DGl1aEYfDPcf7KlV-3">
          <mxGeometry x="-0.0273" relative="1" as="geometry">
            <mxPoint as="offset" />
          </mxGeometry>
        </mxCell>
        <mxCell id="yL99DGl1aEYfDPcf7KlV-16" style="edgeStyle=orthogonalEdgeStyle;rounded=0;orthogonalLoop=1;jettySize=auto;html=1;entryX=0.5;entryY=0;entryDx=0;entryDy=0;" edge="1" parent="1" source="yL99DGl1aEYfDPcf7KlV-6" target="yL99DGl1aEYfDPcf7KlV-15">
          <mxGeometry relative="1" as="geometry">
            <Array as="points">
              <mxPoint x="265" y="440" />
            </Array>
          </mxGeometry>
        </mxCell>
        <mxCell id="yL99DGl1aEYfDPcf7KlV-17" value="update/retrieve purchase" style="edgeLabel;html=1;align=center;verticalAlign=middle;resizable=0;points=[];" vertex="1" connectable="0" parent="yL99DGl1aEYfDPcf7KlV-16">
          <mxGeometry x="-0.0589" y="-1" relative="1" as="geometry">
            <mxPoint as="offset" />
          </mxGeometry>
        </mxCell>
        <mxCell id="yL99DGl1aEYfDPcf7KlV-6" value="Verification&lt;div&gt;Of Purchase&lt;/div&gt;" style="ellipse;whiteSpace=wrap;html=1;fillColor=#f8cecc;strokeColor=#b85450;" vertex="1" parent="1">
          <mxGeometry x="400" y="430" width="120" height="80" as="geometry" />
        </mxCell>
        <mxCell id="yL99DGl1aEYfDPcf7KlV-10" value="" style="endArrow=none;html=1;rounded=0;" edge="1" parent="1">
          <mxGeometry width="50" height="50" relative="1" as="geometry">
            <mxPoint x="230" y="460" as="sourcePoint" />
            <mxPoint x="300" y="460" as="targetPoint" />
          </mxGeometry>
        </mxCell>
        <mxCell id="yL99DGl1aEYfDPcf7KlV-12" value="" style="endArrow=none;html=1;rounded=0;" edge="1" parent="1">
          <mxGeometry width="50" height="50" relative="1" as="geometry">
            <mxPoint x="230" y="490" as="sourcePoint" />
            <mxPoint x="300" y="490" as="targetPoint" />
          </mxGeometry>
        </mxCell>
        <mxCell id="yL99DGl1aEYfDPcf7KlV-15" value="Purchase" style="text;html=1;align=center;verticalAlign=middle;whiteSpace=wrap;rounded=0;" vertex="1" parent="1">
          <mxGeometry x="235" y="460" width="60" height="30" as="geometry" />
        </mxCell>
        <mxCell id="yL99DGl1aEYfDPcf7KlV-23" style="edgeStyle=orthogonalEdgeStyle;rounded=0;orthogonalLoop=1;jettySize=auto;html=1;entryX=0;entryY=0.5;entryDx=0;entryDy=0;" edge="1" parent="1" source="yL99DGl1aEYfDPcf7KlV-19" target="yL99DGl1aEYfDPcf7KlV-22">
          <mxGeometry relative="1" as="geometry" />
        </mxCell>
        <mxCell id="yL99DGl1aEYfDPcf7KlV-24" value="Validate Purchase" style="edgeLabel;html=1;align=center;verticalAlign=middle;resizable=0;points=[];" vertex="1" connectable="0" parent="yL99DGl1aEYfDPcf7KlV-23">
          <mxGeometry x="0.0492" y="2" relative="1" as="geometry">
            <mxPoint as="offset" />
          </mxGeometry>
        </mxCell>
        <mxCell id="yL99DGl1aEYfDPcf7KlV-19" value="Checks Stocks Availability&amp;nbsp;" style="ellipse;whiteSpace=wrap;html=1;fillColor=#e1d5e7;strokeColor=#9673a6;" vertex="1" parent="1">
          <mxGeometry x="400" y="585" width="120" height="80" as="geometry" />
        </mxCell>
        <mxCell id="yL99DGl1aEYfDPcf7KlV-20" style="edgeStyle=orthogonalEdgeStyle;rounded=0;orthogonalLoop=1;jettySize=auto;html=1;entryX=0.25;entryY=0.063;entryDx=0;entryDy=0;entryPerimeter=0;" edge="1" parent="1" source="yL99DGl1aEYfDPcf7KlV-15" target="yL99DGl1aEYfDPcf7KlV-19">
          <mxGeometry relative="1" as="geometry">
            <Array as="points">
              <mxPoint x="265" y="560" />
              <mxPoint x="430" y="560" />
            </Array>
          </mxGeometry>
        </mxCell>
        <mxCell id="yL99DGl1aEYfDPcf7KlV-21" value="receive stocks data" style="edgeLabel;html=1;align=center;verticalAlign=middle;resizable=0;points=[];" vertex="1" connectable="0" parent="yL99DGl1aEYfDPcf7KlV-20">
          <mxGeometry x="-0.0462" y="-2" relative="1" as="geometry">
            <mxPoint x="19" as="offset" />
          </mxGeometry>
        </mxCell>
        <mxCell id="yL99DGl1aEYfDPcf7KlV-26" style="edgeStyle=orthogonalEdgeStyle;rounded=0;orthogonalLoop=1;jettySize=auto;html=1;entryX=0;entryY=0.5;entryDx=0;entryDy=0;" edge="1" parent="1" source="yL99DGl1aEYfDPcf7KlV-22" target="yL99DGl1aEYfDPcf7KlV-25">
          <mxGeometry relative="1" as="geometry" />
        </mxCell>
        <mxCell id="yL99DGl1aEYfDPcf7KlV-27" value="get confirmation about purchase" style="edgeLabel;html=1;align=center;verticalAlign=middle;resizable=0;points=[];" vertex="1" connectable="0" parent="yL99DGl1aEYfDPcf7KlV-26">
          <mxGeometry x="-0.2545" y="-1" relative="1" as="geometry">
            <mxPoint as="offset" />
          </mxGeometry>
        </mxCell>
        <mxCell id="yL99DGl1aEYfDPcf7KlV-30" style="edgeStyle=orthogonalEdgeStyle;rounded=0;orthogonalLoop=1;jettySize=auto;html=1;entryX=0;entryY=0.5;entryDx=0;entryDy=0;" edge="1" parent="1" source="yL99DGl1aEYfDPcf7KlV-22" target="yL99DGl1aEYfDPcf7KlV-2">
          <mxGeometry relative="1" as="geometry">
            <mxPoint x="674.9400204746057" y="622.4705882352941" as="sourcePoint" />
            <mxPoint x="42.00001436121323" y="420" as="targetPoint" />
            <Array as="points">
              <mxPoint x="640" y="700" />
              <mxPoint x="160" y="700" />
              <mxPoint x="160" y="300" />
            </Array>
          </mxGeometry>
        </mxCell>
        <mxCell id="yL99DGl1aEYfDPcf7KlV-31" value="Validate Purchase" style="edgeLabel;html=1;align=center;verticalAlign=middle;resizable=0;points=[];" vertex="1" connectable="0" parent="yL99DGl1aEYfDPcf7KlV-30">
          <mxGeometry x="-0.1542" y="-5" relative="1" as="geometry">
            <mxPoint as="offset" />
          </mxGeometry>
        </mxCell>
        <mxCell id="yL99DGl1aEYfDPcf7KlV-22" value="Apply Validation Rules" style="ellipse;whiteSpace=wrap;html=1;fillColor=#fff2cc;strokeColor=#d6b656;" vertex="1" parent="1">
          <mxGeometry x="580" y="500" width="110" height="75" as="geometry" />
        </mxCell>
        <mxCell id="yL99DGl1aEYfDPcf7KlV-28" style="edgeStyle=orthogonalEdgeStyle;rounded=0;orthogonalLoop=1;jettySize=auto;html=1;" edge="1" parent="1" source="yL99DGl1aEYfDPcf7KlV-25" target="yL99DGl1aEYfDPcf7KlV-1">
          <mxGeometry relative="1" as="geometry">
            <Array as="points">
              <mxPoint x="720" y="300" />
            </Array>
          </mxGeometry>
        </mxCell>
        <mxCell id="yL99DGl1aEYfDPcf7KlV-29" value="sends purchase request" style="edgeLabel;html=1;align=center;verticalAlign=middle;resizable=0;points=[];" vertex="1" connectable="0" parent="yL99DGl1aEYfDPcf7KlV-28">
          <mxGeometry x="0.1733" y="-2" relative="1" as="geometry">
            <mxPoint as="offset" />
          </mxGeometry>
        </mxCell>
        <mxCell id="yL99DGl1aEYfDPcf7KlV-25" value="Customer" style="rounded=0;whiteSpace=wrap;html=1;fillColor=#dae8fc;strokeColor=#6c8ebf;" vertex="1" parent="1">
          <mxGeometry x="660" y="400" width="120" height="40" as="geometry" />
        </mxCell>
        <mxCell id="yL99DGl1aEYfDPcf7KlV-32" style="edgeStyle=orthogonalEdgeStyle;rounded=0;orthogonalLoop=1;jettySize=auto;html=1;exitX=0.25;exitY=0;exitDx=0;exitDy=0;entryX=0.596;entryY=1.001;entryDx=0;entryDy=0;entryPerimeter=0;" edge="1" parent="1" source="yL99DGl1aEYfDPcf7KlV-2" target="yL99DGl1aEYfDPcf7KlV-22">
          <mxGeometry relative="1" as="geometry">
            <Array as="points">
              <mxPoint x="238" y="260" />
              <mxPoint x="100" y="260" />
              <mxPoint x="100" y="740" />
              <mxPoint x="680" y="740" />
              <mxPoint x="680" y="575" />
            </Array>
          </mxGeometry>
        </mxCell>
        <mxCell id="yL99DGl1aEYfDPcf7KlV-33" value="sends purchase status" style="edgeLabel;html=1;align=center;verticalAlign=middle;resizable=0;points=[];" vertex="1" connectable="0" parent="yL99DGl1aEYfDPcf7KlV-32">
          <mxGeometry x="0.2142" y="2" relative="1" as="geometry">
            <mxPoint as="offset" />
          </mxGeometry>
        </mxCell>
        <mxCell id="yL99DGl1aEYfDPcf7KlV-34" value="1.1" style="text;html=1;align=center;verticalAlign=middle;whiteSpace=wrap;rounded=0;" vertex="1" parent="1">
          <mxGeometry x="430" y="260" width="60" height="30" as="geometry" />
        </mxCell>
        <mxCell id="yL99DGl1aEYfDPcf7KlV-35" value="1.2" style="text;html=1;align=center;verticalAlign=middle;whiteSpace=wrap;rounded=0;" vertex="1" parent="1">
          <mxGeometry x="430" y="431" width="60" height="30" as="geometry" />
        </mxCell>
        <mxCell id="yL99DGl1aEYfDPcf7KlV-36" value="1.3" style="text;html=1;align=center;verticalAlign=middle;whiteSpace=wrap;rounded=0;" vertex="1" parent="1">
          <mxGeometry x="430" y="585" width="60" height="30" as="geometry" />
        </mxCell>
        <mxCell id="yL99DGl1aEYfDPcf7KlV-37" value="1.4" style="text;html=1;align=center;verticalAlign=middle;whiteSpace=wrap;rounded=0;" vertex="1" parent="1">
          <mxGeometry x="605" y="500" width="60" height="30" as="geometry" />
        </mxCell>
      </root>
    </mxGraphModel>
  </diagram>
</mxfile>
